# xmcd
#
# Track frame offsets:
#	150
#	7907
#	23112
#	28343
#	33329
#	68078
#
# Disc length: 952 seconds
#
# Revision: 1
# Processed by: cddbd v1.5.1PL0 Copyright (c) Steve Scherf et al.
# Submitted via: CDex 1.50Beta5
#
DISCID=4003b606
DTITLE=富井健二＆井上喜久子 - 富井の古典文法をはじめからていねいに
DYEAR=1900
DGENRE=Unclassifiable
TTITLE0=はじめに
TTITLE1=動詞の活用
TTITLE2=形容詞・形容動詞の活用
TTITLE3=助動詞の「接続」の歌
TTITLE4=助動詞の活用表
TTITLE5=終わりに
EXTD=
EXTT0=
EXTT1=
EXTT2=
EXTT3=
EXTT4=
EXTT5=
PLAYORDER=
